HIERARCHY
ROOT Hips
{
	OFFSET 0.00000 0.00000 0.00000
	CHANNELS 6 Xposition Yposition Zposition Zrotation Yrotation Xrotation 
	JOINT LHipJoint
	{
		OFFSET 0 0 0
		CHANNELS 3 Zrotation Yrotation Xrotation
		JOINT LeftUpLeg
		{
			OFFSET 2.36090 -1.39315 1.24752
			CHANNELS 3 Zrotation Yrotation Xrotation
			JOINT LeftLeg
			{
				OFFSET 2.06810 -5.68207 0.00000
				CHANNELS 3 Zrotation Yrotation Xrotation
				JOINT LeftFoot
				{
					OFFSET 2.46631 -6.77613 0.00000
					CHANNELS 3 Zrotation Yrotation Xrotation
					JOINT LeftToeBase
					{
						OFFSET 0.26031 -0.71520 1.99545
						CHANNELS 3 Zrotation Yrotation Xrotation
						End Site
						{
							OFFSET 0.00000 -0.00000 1.05957
						}
					}
				}
			}
		}
	}
	JOINT RHipJoint
	{
		OFFSET 0 0 0
		CHANNELS 3 Zrotation Yrotation Xrotation
		JOINT RightUpLeg
		{
			OFFSET -2.25243 -1.39315 1.24752
			CHANNELS 3 Zrotation Yrotation Xrotation
			JOINT RightLeg
			{
				OFFSET -2.17343 -5.97145 0.00000
				CHANNELS 3 Zrotation Yrotation Xrotation
				JOINT RightFoot
				{
					OFFSET -2.52372 -6.93386 0.00000
					CHANNELS 3 Zrotation Yrotation Xrotation
					JOINT RightToeBase
					{
						OFFSET -0.22538 -0.61923 2.11447
						CHANNELS 3 Zrotation Yrotation Xrotation
						End Site
						{
							OFFSET -0.00000 -0.00000 1.10506
						}
					}
				}
			}
		}
	}
	JOINT LowerBack
	{
		OFFSET 0 0 0
		CHANNELS 3 Zrotation Yrotation Xrotation
		JOINT Spine
		{
			OFFSET 0.01594 2.13103 0.08007
			CHANNELS 3 Zrotation Yrotation Xrotation
			JOINT Spine1
			{
				OFFSET 0.01393 2.09723 0.18338
				CHANNELS 3 Zrotation Yrotation Xrotation
				JOINT Neck
				{
					OFFSET 0 0 0
					CHANNELS 3 Zrotation Yrotation Xrotation
					JOINT Neck1
					{
						OFFSET 0.05351 1.38915 0.32494
						CHANNELS 3 Zrotation Yrotation Xrotation
						JOINT Head
						{
							OFFSET 0.00711 1.45992 -0.21666
							CHANNELS 3 Zrotation Yrotation Xrotation
							End Site
							{
								OFFSET -0.00433 1.47702 -0.11056
							}
						}
					}
				}
				JOINT LeftShoulder
				{
					OFFSET 0 0 0
					CHANNELS 3 Zrotation Yrotation Xrotation
					JOINT LeftArm
					{
						OFFSET 2.87198 0.92249 0.11132
						CHANNELS 3 Zrotation Yrotation Xrotation
						JOINT LeftForeArm
						{
							OFFSET 5.52731 -0.00000 0.00000
							CHANNELS 3 Zrotation Yrotation Xrotation
							JOINT LeftHand
							{
								OFFSET 3.11059 -0.00000 0.00000
								CHANNELS 3 Zrotation Yrotation Xrotation
								JOINT LeftFingerBase
								{
									OFFSET 0 0 0
									CHANNELS 3 Zrotation Yrotation Xrotation
									JOINT LeftHandIndex1
									{
										OFFSET 0.41963 -0.00000 0.00000
										CHANNELS 3 Zrotation Yrotation Xrotation
										End Site
										{
											OFFSET 0.33831 -0.00000 0.00000
										}
									}
								}
								JOINT LThumb
								{
									OFFSET 0 0 0
									CHANNELS 3 Zrotation Yrotation Xrotation
									End Site
									{
										OFFSET 0.34348 -0.00000 0.34348
									}
								}
							}
						}
					}
				}
				JOINT RightShoulder
				{
					OFFSET 0 0 0
					CHANNELS 3 Zrotation Yrotation Xrotation
					JOINT RightArm
					{
						OFFSET -2.94710 0.68072 0.32187
						CHANNELS 3 Zrotation Yrotation Xrotation
						JOINT RightForeArm
						{
							OFFSET -5.25396 -0.00000 -0.00000
							CHANNELS 3 Zrotation Yrotation Xrotation
							JOINT RightHand
							{
								OFFSET -3.10567 -0.00000 0.00000
								CHANNELS 3 Zrotation Yrotation Xrotation
								JOINT RightFingerBase
								{
									OFFSET 0 0 0
									CHANNELS 3 Zrotation Yrotation Xrotation
									JOINT RightHandIndex1
									{
										OFFSET -0.49868 -0.00000 0.00000
										CHANNELS 3 Zrotation Yrotation Xrotation
										End Site
										{
											OFFSET -0.40204 -0.00000 0.00000
										}
									}
								}
								JOINT RThumb
								{
									OFFSET 0 0 0
									CHANNELS 3 Zrotation Yrotation Xrotation
									End Site
									{
										OFFSET -0.40818 -0.00000 0.40818
									}
								}
							}
						}
					}
				}
			}
		}
	}
}
MOTION
Frames: 6
Frame Time: 0.105263
0.00 0.00 0.00 0 0 0 0 0 0 -21 0 0 0 0 0 0 0 0 0 0 0 0 0 0 21 0 0 0 0 0 0 0 0 0 0 0 0 0 0 0 0 0 0 0 0 0 0 -16 0 0 21 0 0 11 0 0 0 -8 0 0 0 0 0 0 0 0 0 0 0 0 0 0 0 0 0 0 0 0 8 0 0 0 0 0 0 0 0 0 0 0 0 0 0 0 0 0
0.00 0.00 0.00 -6.8510 -2.4215 -22.8531 0.0000 0.0000 0.0000 10.7807 -2.2953 -67.1205 19.6439 19.9970 88.9588 -0.7768 -15.8317 9.9386 0.3259 -3.6690 -10.1472 0.0000 0.0000 0.0000 3.4616 0.6893 -65.2925 -21.9608 -19.9076 95.7413 -0.0201 0.6686 -2.5273 -0.2265 3.0635 -8.4556 -8.5684 3.1285 19.5247 -0.0352 2.4891 6.9055 4.2622 1.1578 -3.7525 -6.5276 -6.5005 -24.4626 7.8006 -9.3040 26.4473 2.3993 -3.6428 13.7740 -0.0000 -0.0000 0.0000 -82.9840 -30.0413 49.4272 99.8859 -59.6275 -68.5507 -0.0000 0.0000 -50.7974 10.6948 13.2509 2.4787 -7.1250 0.0000 -0.0000 -15.0484 42.9439 0.7826 -0.0000 -0.0000 0.0000 80.0001 16.8073 36.1534 -106.0623 59.0023 -73.8638 0.0000 -0.0000 -40.4420 0.8259 -23.6682 -0.3316 7.1250 -0.0000 -0.0000 29.9163 -51.0595 -4.8362
0.00 0.00 0.00 9.4067 -1.5924 3.9845 0.0000 0.0000 0.0000 -5.3199 -3.5631 -90.7022 18.5329 19.9483 85.7069 -0.3477 -10.4828 5.3912 0.4693 -4.3938 -12.1872 0.0000 0.0000 0.0000 -14.3876 -5.3290 -100.9483 -24.2245 -19.5666 102.4377 0.1166 6.3074 0.3771 -0.0110 0.6772 -1.8610 -19.0768 2.0771 8.6343 -3.8292 0.6262 0.0052 6.4273 0.7238 -5.0842 -4.9380 -6.5630 -28.9991 7.1525 -8.7072 16.7484 1.8761 -3.3936 10.6438 -0.0000 -0.0000 0.0000 -81.7887 -9.6373 44.9018 113.2520 -57.8552 -79.9918 -0.0000 0.0000 -61.2754 34.0885 8.5920 5.7733 -7.1250 0.0000 -0.0000 6.3395 40.2403 -0.7473 -0.0000 -0.0000 0.0000 83.1615 11.8532 47.0716 -108.5873 58.6535 -76.0243 0.0000 -0.0000 -30.3340 -0.5527 -23.9285 0.2242 7.1250 -0.0000 -0.0000 28.8207 -51.5107 -4.9688
0.00 0.00 0.00 11.3327 -4.8500 46.2346 0.0000 0.0000 0.0000 -6.9408 -6.1593 -132.2259 19.6083 19.9963 88.8545 -0.4591 -11.9105 4.0312 0.4511 -4.3090 -11.9477 0.0000 0.0000 0.0000 -7.4287 -15.9882 -143.5119 -24.1769 -19.5765 102.2959 0.2759 9.3737 1.9230 -0.1069 2.1082 -5.8047 -3.9250 -1.9321 -2.7006 -3.4760 -2.8928 -8.2092 -1.3493 -1.3333 -7.0628 1.2023 -1.1256 -50.7649 3.2609 -2.6804 1.0665 0.5949 -0.8337 6.9756 0.0000 -0.0000 0.0000 -78.6962 4.2190 46.0785 114.1239 -57.6826 -80.7294 -0.0000 0.0000 -61.3274 45.4023 10.4585 10.4309 -7.1250 0.0000 -0.0000 16.9558 44.0293 -0.4188 0.0000 -0.0000 0.0000 83.5197 1.6845 55.1469 -109.3764 58.5327 -76.6978 0.0000 -0.0000 -28.3254 -8.8031 -28.1697 4.1814 7.1250 -0.0000 -0.0000 23.7237 -56.8133 -7.1448
0.00 0.00 0.00 1.5578 -0.9223 64.9034 0.0000 0.0000 0.0000 4.0184 3.0243 -153.3315 21.5078 19.9454 94.4123 -0.5707 -13.3651 3.0183 0.7771 -5.6284 -15.7098 0.0000 0.0000 0.0000 7.6374 -8.4907 -159.6754 -24.9124 -19.4113 104.4997 0.2448 11.1592 -3.3339 -0.0456 1.3787 -3.7916 6.7096 -0.8896 -2.9396 1.5824 -0.9323 -11.1154 -1.9749 -1.0167 -10.3122 3.8290 3.4264 -61.2701 0.7487 0.9869 2.2744 -0.0161 0.5570 7.4958 -0.0000 -0.0000 0.0000 -75.6259 1.9956 48.3165 125.4034 -54.6891 -90.1135 -0.0000 0.0000 -60.7705 46.7759 8.4180 8.8534 -7.1250 0.0000 -0.0000 17.7697 41.4859 -1.5966 -0.0000 -0.0000 0.0000 78.2739 0.9026 55.2237 -124.7791 54.8958 -89.6034 0.0000 -0.0000 -30.0449 -14.1522 -28.3006 6.8170 7.1250 -0.0000 -0.0000 18.3775 -58.0660 -6.0080
0.00 0.00 0.00 0.5875 -5.6368 72.2478 0.0000 0.0000 0.0000 4.4646 -0.2057 -136.8568 16.2495 19.6594 78.9741 0.1630 -8.4302 -8.7134 1.4743 -7.6725 -21.7237 0.0000 0.0000 0.0000 5.8633 -2.0447 -144.6005 -18.5741 -19.9512 85.8277 0.0147 12.4250 -8.5190 -0.1949 2.8427 -7.8413 5.8897 -0.7044 -5.3203 1.0997 -0.9398 -11.5974 -2.0698 -0.9808 -9.4299 1.8843 1.3757 -58.7135 2.8366 -0.3938 0.9811 0.8337 0.1675 6.9282 0.0000 -0.0000 0.0000 -76.1513 -3.5891 51.0183 116.3621 -57.2039 -82.6159 -0.0000 0.0000 -61.2836 49.5521 8.6893 10.0492 -7.1250 0.0000 -0.0000 20.4330 42.2828 -1.4357 0.0000 -0.0000 0.0000 80.0781 -0.0364 54.8703 -120.0632 56.2931 -85.7115 0.0000 -0.0000 -30.2418 -23.3488 -25.8413 10.6562 7.1250 -0.0000 -0.0000 7.2401 -57.6451 -2.2493
